<?xml version="1.0" encoding="iso-8859-1"?>
<!-- Uploaded to: SVG Repo, www.svgrepo.com, Generator: SVG Repo Mixer Tools -->
<svg version="1.1" id="Layer_1" xmlns="http://www.w3.org/2000/svg" xmlns:xlink="http://www.w3.org/1999/xlink" 
	 viewBox="0 0 512 512" xml:space="preserve">
<path style="fill:#FFD248;" d="M224.653,99.265c0,49.056-39.76,88.816-88.816,88.816S47.02,148.321,47.02,99.265
	s39.76-88.816,88.816-88.816S224.653,50.209,224.653,99.265z"/>
<path style="fill:#FFC348;" d="M203.755,99.265c0,37.515-30.403,67.918-67.918,67.918S67.918,136.78,67.918,99.265
	s30.403-67.918,67.918-67.918S203.755,61.75,203.755,99.265z"/>
<g>
	<path style="fill:#231F20;" d="M135.837,198.531c-54.735,0-99.265-44.53-99.265-99.265S81.102,0,135.837,0
		s99.265,44.53,99.265,99.265h-20.898c0-43.212-35.156-78.367-78.367-78.367S57.469,56.054,57.469,99.265
		s35.156,78.367,78.367,78.367V198.531z"/>
	<rect x="114.939" y="47.02" style="fill:#231F20;" width="26.122" height="20.898"/>
	<rect x="78.367" y="94.041" style="fill:#231F20;" width="26.122" height="20.898"/>
	<rect x="141.061" y="88.816" style="fill:#231F20;" width="31.347" height="20.898"/>
</g>
<polygon style="fill:#31C0D8;" points="464.98,135.837 464.98,177.633 433.633,177.633 203.755,177.633 172.408,177.633 
	172.408,135.837 339.592,135.837 "/>
<polygon style="fill:#F1F2F2;" points="433.633,177.633 427.367,240.327 210.026,240.327 203.755,177.633 "/>
<polygon style="fill:#FFD248;" points="240.327,334.367 219.429,334.367 210.026,240.327 427.367,240.327 417.959,334.367 
	397.061,334.367 386.612,501.551 250.775,501.551 "/>
<path style="fill:#231F20;" d="M464.98,125.388H357.35l40.635-73.143h51.321V31.347h-57.469c-3.795,0-7.291,2.057-9.133,5.375
	l-49.26,88.666H172.408c-5.771,0-10.449,4.678-10.449,10.449v41.796c0,5.771,4.678,10.449,10.449,10.449h21.891l14.733,147.325
	c0.534,5.341,5.029,9.409,10.397,9.409h11.081l9.837,157.387c0.344,5.507,4.911,9.797,10.429,9.797h135.837
	c5.517,0,10.084-4.29,10.428-9.797l9.838-157.387h11.081c5.369,0,9.863-4.068,10.397-9.408l14.733-147.326h21.891
	c5.77,0,10.449-4.678,10.449-10.449v-41.796C475.429,130.066,470.75,125.388,464.98,125.388z M215.301,188.082h206.786l-4.18,41.796
	H219.481L215.301,188.082z M397.061,323.918c-5.517,0-10.084,4.29-10.428,9.797l-9.838,157.387H260.591l-9.143-146.286h88.143
	v-20.898h-99.265h-11.442l-7.314-73.143h194.248l-7.315,73.143H397.061z M454.531,167.184h-20.898H203.755h-20.898v-20.898h271.673
	V167.184z"/>
</svg>