<svg width="16" height="16" viewBox="0 0 16 16" fill="none" xmlns="http://www.w3.org/2000/svg">
<path d="M15 5C15.0003 3.99798 14.6245 3.03233 13.947 2.29408C13.2695 1.55583 12.3396 1.09876 11.3412 1.01328C10.3429 0.927797 9.34876 1.22014 8.55561 1.83246C7.76245 2.44479 7.228 3.33251 7.05798 4.32C6.90699 4.8139 6.72769 5.2987 6.52098 5.772L4.14598 8.147C4.07622 8.21698 4.02876 8.30606 4.00959 8.403C3.99042 8.49994 4.0004 8.60038 4.03828 8.69165C4.07616 8.78292 4.14023 8.86091 4.2224 8.91579C4.30458 8.97067 4.40117 8.99997 4.49998 9H4.57598L3.09298 10.483L3.07898 10.489C3.05341 10.4969 3.02674 10.5006 2.99998 10.5C2.58223 10.5001 2.175 10.631 1.83544 10.8743C1.49588 11.1177 1.24103 11.4612 1.10668 11.8568C0.97233 12.2523 0.965212 12.68 1.08633 13.0798C1.20744 13.4796 1.45071 13.8315 1.78198 14.086C1.83198 14.124 1.87598 14.169 1.91398 14.218C2.16849 14.5493 2.52033 14.7925 2.92014 14.9137C3.31995 15.0348 3.74765 15.0276 4.1432 14.8933C4.53876 14.7589 4.88232 14.5041 5.12565 14.1645C5.36899 13.825 5.49989 13.4177 5.49998 13C5.49998 12.964 5.50498 12.938 5.50998 12.922C5.51298 12.914 5.51698 12.909 5.51698 12.909L6.99998 11.425V11.5C6.99981 11.599 7.02904 11.6959 7.08396 11.7782C7.13889 11.8606 7.21705 11.9249 7.30852 11.9628C7.39999 12.0007 7.50067 12.0106 7.59777 11.9912C7.69488 11.9719 7.78405 11.9241 7.85398 11.854L10.21 9.49699C10.583 9.32999 11.09 9.134 11.766 8.927C12.6768 8.74908 13.4975 8.26006 14.0875 7.54367C14.6775 6.82727 15 5.92806 15 5ZM6.99998 10.01L4.80798 12.202C4.60403 12.4165 4.4933 12.7031 4.49998 12.999C4.49994 13.2079 4.43449 13.4115 4.31282 13.5813C4.19115 13.751 4.01937 13.8785 3.82159 13.9456C3.62382 14.0128 3.40997 14.0164 3.21006 13.9558C3.01016 13.8953 2.83424 13.7736 2.70698 13.608C2.61582 13.4894 2.50959 13.3832 2.39098 13.292C2.22575 13.1646 2.1045 12.9888 2.04419 12.7891C1.98389 12.5893 1.98756 12.3758 2.05469 12.1782C2.12181 11.9807 2.24904 11.8091 2.41855 11.6875C2.58806 11.5659 2.79136 11.5003 2.99998 11.5C3.24798 11.5 3.55998 11.43 3.79998 11.19L5.98998 9H6.99998V10.01ZM11 2C11.748 1.9992 12.4694 2.2779 13.0226 2.78143C13.5758 3.28496 13.9209 3.977 13.9903 4.72182C14.0596 5.46664 13.8482 6.21051 13.3975 6.80753C12.9468 7.40455 12.2893 7.81165 11.554 7.949C11.5358 7.95231 11.5177 7.95665 11.5 7.962C10.723 8.199 10.141 8.428 9.71198 8.625C9.65811 8.64949 9.60902 8.68334 9.56698 8.725L7.99998 10.294V8.5C7.99998 8.36739 7.94731 8.24021 7.85354 8.14644C7.75977 8.05267 7.63259 8 7.49998 8H5.70698L7.29298 6.414C7.33509 6.37174 7.3693 6.3223 7.39398 6.268C7.58198 5.856 7.79898 5.307 8.02298 4.584C8.0299 4.56173 8.03524 4.53901 8.03898 4.516C8.15382 3.81352 8.51469 3.17476 9.05712 2.71385C9.59955 2.25295 10.2882 1.99992 11 2Z" fill="black"/>
</svg>
