<?xml version="1.0" encoding="utf-8"?>
<!-- Uploaded to: SVG Repo, www.svgrepo.com, Generator: SVG Repo Mixer Tools -->
<svg width="800px" height="800px" viewBox="0 0 1024 1024" class="icon"  version="1.1" xmlns="http://www.w3.org/2000/svg"><path d="M891.130311 281.736533H428.225422L478.208 920.689778h362.951111z" fill="#47A7DD" /><path d="M428.225422 281.736533L478.208 920.689778h102.274844l-41.813333-638.953245z" fill="#3D98C1" /><path d="M633.605689 785.931378H88.109511v63.658666a71.111111 71.111111 0 0 0 71.099733 71.099734H562.517333a71.111111 71.111111 0 0 0 71.099734-71.099734v-63.658666h-0.011378z" fill="#FFCA6C" /><path d="M185.901511 849.590044v-63.658666H88.109511v63.658666a71.111111 71.111111 0 0 0 71.099733 71.099734h97.803378a71.111111 71.111111 0 0 1-71.111111-71.099734z" fill="#E2AE5A" /><path d="M88.109511 685.966222h545.507556v-63.647289a71.111111 71.111111 0 0 0-71.099734-71.099733H159.209244a71.111111 71.111111 0 0 0-71.099733 71.099733v63.647289z" fill="#FFCA6C" /><path d="M185.901511 622.318933v63.647289H88.109511v-63.647289a71.111111 71.111111 0 0 1 71.099733-71.099733h97.803378a71.111111 71.111111 0 0 0-71.111111 71.099733z" fill="#E2AE5A" /><path d="M553.198933 685.966222h-384.682666a49.982578 49.982578 0 1 0 0 99.976534h384.682666a49.993956 49.993956 0 0 0 49.993956-49.982578 50.016711 50.016711 0 0 0-49.993956-49.993956z" fill="#DD852C" /><path d="M218.510222 735.960178a49.993956 49.993956 0 0 1 49.993956-49.993956h-99.987911a49.982578 49.982578 0 1 0 0 99.976534h99.976533a50.005333 50.005333 0 0 1-49.982578-49.982578z" fill="#C16D21" /><path d="M903.736889 177.413689H415.618844l-27.602488 104.322844h543.323022zM852.059022 107.861333H467.296711l-8.647111 69.552356h402.056533z" fill="#F2F2F2" /><path d="M539.067733 107.861333h-71.771022l-8.647111 69.552356h-43.030756l-27.602488 104.322844h148.866844l36.955022-104.322844-34.770489-2.184533" fill="#E6E6E6" /><path d="M648.897422 785.931378c0-8.430933-6.849422-15.280356-15.291733-15.280356h-25.167645c6.360178-10.069333 10.0352-21.959111 10.0352-34.702222s-3.6864-24.644267-10.0352-34.702222h25.167645c8.442311 0 15.291733-6.849422 15.291733-15.291734v-63.647288c0-47.638756-38.752711-86.391467-86.391466-86.391467H159.209244C111.570489 535.938844 72.817778 574.691556 72.817778 622.318933v63.647289c0 8.442311 6.849422 15.291733 15.291733 15.291734h25.167645c-6.3488 10.057956-10.023822 21.959111-10.023823 34.702222s3.6864 24.632889 10.023823 34.702222H88.109511A15.268978 15.268978 0 0 0 72.817778 785.931378v63.658666c0 47.638756 38.752711 86.391467 86.391466 86.391467h269.334756a15.291733 15.291733 0 1 0 0-30.583467H159.209244a55.864889 55.864889 0 0 1-55.808-55.808V801.223111h514.924089v48.366933a55.864889 55.864889 0 0 1-55.808 55.808h-83.000889a15.291733 15.291733 0 1 0 0 30.583467h83.000889c47.638756 0 86.391467-38.752711 86.391467-86.391467v-63.658666h-0.011378z m-480.381155-15.280356c-19.126044 0-34.690844-15.5648-34.690845-34.702222s15.5648-34.702222 34.690845-34.702222h52.098844a15.291733 15.291733 0 0 0 0-30.583467H103.389867v-48.355555a55.864889 55.864889 0 0 1 55.808-55.808h403.308089a55.864889 55.864889 0 0 1 55.808 55.808v48.355555H268.4928a15.291733 15.291733 0 1 0 0 30.583467h284.706133c19.137422 0 34.690844 15.5648 34.690845 34.702222s-15.553422 34.702222-34.690845 34.702222h-384.682666zM875.702044 479.038578a15.268978 15.268978 0 0 0-16.429511 14.051555l-32.256 412.319289h-171.349333a15.291733 15.291733 0 0 0 0 30.583467H841.159111c7.975822 0 14.620444-6.144 15.246222-14.097067l33.359645-426.416355a15.314489 15.314489 0 0 0-14.062934-16.440889zM946.119111 277.822578l-27.613867-104.322845c-1.763556-6.701511-7.827911-11.377778-14.779733-11.377777h-29.513955l-6.997334-56.149334a15.280356 15.280356 0 0 0-15.166578-13.403022h-260.437333a15.291733 15.291733 0 0 0 0 30.572089H838.542222l4.846934 38.968889H475.9552l4.858311-38.968889h59.858489a15.291733 15.291733 0 0 0 0-30.572089h-73.363911c-7.714133 0-14.222222 5.745778-15.166578 13.403022l-6.985955 56.149334H415.630222c-6.940444 0-13.0048 4.676267-14.779733 11.377777l-27.602489 104.322845a15.303111 15.303111 0 0 0 14.768356 19.205689h26.066488l15.576178 199.111111a15.291733 15.291733 0 0 0 30.481067-2.377956L444.757333 297.016889h429.852445l-11.036445 141.050311a15.2576 15.2576 0 0 0 14.040178 16.429511 15.268978 15.268978 0 0 0 16.440889-14.040178l11.207111-143.428266h26.066489a15.303111 15.303111 0 0 0 14.791111-19.205689z m-538.248533-11.389156l19.512889-73.739378h464.5888l19.512889 73.739378H407.870578z" fill="" /></svg>