<?xml version="1.0" encoding="iso-8859-1"?>
<!-- Uploaded to: SVG Repo, www.svgrepo.com, Generator: SVG Repo Mixer Tools -->
<svg version="1.1" id="Layer_1" xmlns="http://www.w3.org/2000/svg" xmlns:xlink="http://www.w3.org/1999/xlink" 
	 viewBox="0 0 512 512" xml:space="preserve">
<rect x="247.56" y="99.868" style="fill:#5389A9;" width="16.879" height="56.264"/>
<path style="fill:#66C6FE;" d="M256,144.879l188.484,256h33.758v-33.758C478.242,244.38,378.74,144.879,256,144.879z"/>
<path style="fill:#99D9FF;" d="M256,144.879c-122.74,0-222.242,99.501-222.242,222.242v33.758h410.725v-33.758
	C444.484,244.38,360.097,144.879,256,144.879z"/>
<path style="fill:#5CA8D3;" d="M444.484,400.879l-33.758,33.758h33.758c18.645,0,33.758-15.114,33.758-33.758H444.484z"/>
<path style="fill:#66C6FE;" d="M444.484,400.879H33.758c0,18.645,15.114,33.758,33.758,33.758h343.209
	C429.37,434.637,444.484,419.524,444.484,400.879z"/>
<path style="fill:#5CA8D3;" d="M503.56,409.319H8.44c-4.662,0-8.44-3.778-8.44-8.44s3.778-8.44,8.44-8.44H503.56
	c4.662,0,8.44,3.778,8.44,8.44S508.222,409.319,503.56,409.319z"/>
<g>
	<circle style="fill:#66C6FE;" cx="153.6" cy="232.088" r="8.44"/>
	<circle style="fill:#66C6FE;" cx="119.842" cy="265.846" r="8.44"/>
</g>
<path style="fill:#5CA8D3;" d="M256,77.363l-11.253,16.879L256,111.121h33.758C289.758,92.477,274.645,77.363,256,77.363z"/>
<path style="fill:#66C6FE;" d="M222.242,111.121H256V77.363C237.355,77.363,222.242,92.477,222.242,111.121z"/>
</svg>