<svg width="24" height="24" viewBox="0 0 24 24" fill="none" xmlns="http://www.w3.org/2000/svg">
<g clip-path="url(#clip0_48_8)">
<g filter="url(#filter0_d_48_8)">
<path d="M12 17.27L16.15 19.78C16.91 20.24 17.84 19.56 17.64 18.7L16.54 13.98L20.21 10.8C20.88 10.22 20.52 9.12 19.64 9.05L14.81 8.64L12.92 4.18C12.58 3.37 11.42 3.37 11.08 4.18L9.19001 8.63L4.36001 9.04C3.48001 9.11 3.12001 10.21 3.79001 10.79L7.46001 13.97L6.36001 18.69C6.16001 19.55 7.09001 20.23 7.85001 19.77L12 17.27Z" fill="#F3994B"/>
</g>
</g>
<defs>
<filter id="filter0_d_48_8" x="-0.556946" y="3.5725" width="25.1139" height="24.3558" filterUnits="userSpaceOnUse" color-interpolation-filters="sRGB">
<feFlood flood-opacity="0" result="BackgroundImageFix"/>
<feColorMatrix in="SourceAlpha" type="matrix" values="0 0 0 0 0 0 0 0 0 0 0 0 0 0 0 0 0 0 127 0" result="hardAlpha"/>
<feOffset dy="4"/>
<feGaussianBlur stdDeviation="2"/>
<feComposite in2="hardAlpha" operator="out"/>
<feColorMatrix type="matrix" values="0 0 0 0 0 0 0 0 0 0 0 0 0 0 0 0 0 0 0.25 0"/>
<feBlend mode="normal" in2="BackgroundImageFix" result="effect1_dropShadow_48_8"/>
<feBlend mode="normal" in="SourceGraphic" in2="effect1_dropShadow_48_8" result="shape"/>
</filter>
<clipPath id="clip0_48_8">
<rect width="24" height="24" fill="white"/>
</clipPath>
</defs>
</svg>
