<svg width="24" height="24" viewBox="0 0 24 24" fill="none" xmlns="http://www.w3.org/2000/svg">
<path d="M7 22C6.45 22 5.979 21.804 5.587 21.412C5.195 21.02 4.99933 20.5493 5 20C5 19.45 5.196 18.979 5.588 18.587C5.98 18.195 6.45067 17.9993 7 18C7.55 18 8.021 18.196 8.413 18.588C8.805 18.98 9.00067 19.4507 9 20C9 20.55 8.804 21.021 8.412 21.413C8.02 21.805 7.54933 22.0007 7 22ZM17 22C16.45 22 15.979 21.804 15.587 21.412C15.195 21.02 14.9993 20.5493 15 20C15 19.45 15.196 18.979 15.588 18.587C15.98 18.195 16.4507 17.9993 17 18C17.55 18 18.021 18.196 18.413 18.588C18.805 18.98 19.0007 19.4507 19 20C19 20.55 18.804 21.021 18.412 21.413C18.02 21.805 17.5493 22.0007 17 22ZM6.15 6L8.55 11H15.55L18.3 6H6.15ZM5.2 4H19.95C20.3333 4 20.625 4.171 20.825 4.513C21.025 4.855 21.0333 5.20067 20.85 5.55L17.3 11.95C17.1167 12.2833 16.8707 12.5417 16.562 12.725C16.2533 12.9083 15.916 13 15.55 13H8.1L7 15H19V17H7C6.25 17 5.68333 16.6707 5.3 16.012C4.91667 15.3533 4.9 14.6993 5.25 14.05L6.6 11.6L3 4H1V2H4.25L5.2 4Z" fill="black"/>
</svg>
