<?xml version="1.0" encoding="iso-8859-1"?>
<!-- Uploaded to: SVG Repo, www.svgrepo.com, Generator: SVG Repo Mixer Tools -->
<svg height="800px" width="800px" version="1.1" id="Layer_1" xmlns="http://www.w3.org/2000/svg" xmlns:xlink="http://www.w3.org/1999/xlink" 
	 viewBox="0 0 511.999 511.999" xml:space="preserve">
<path style="fill:#BF4F28;" d="M10.48,234.435c35.587,0,45.331,31.81,81.817,31.826c36.487-0.016,46.232-31.826,81.818-31.826
	c35.596,0,44.115,31.827,81.842,31.827s43.508-31.827,81.843-31.827h0.093h-0.011c35.587,0,45.331,31.81,81.817,31.826
	c36.487-0.016,46.232-31.826,81.818-31.826l-95.648,239.75c-6.628,16.614-21.688,27.364-38.335,27.364H144.463
	c-16.647,0-31.706-10.75-38.335-27.364L10.48,234.435z"/>
<g>
	<path style="fill:#871B00;" d="M92.297,266.261c-36.486-0.016-46.23-31.826-81.817-31.826l95.649,239.75
		c6.628,16.614,21.687,27.364,38.335,27.364h36.085l-43.212-253.827C124.566,256.447,112.552,266.253,92.297,266.261z"/>
	<path style="fill:#871B00;" d="M337.203,234.435h-0.083c-38.262,0-44.689,30.573-81.123,31.769V501.55h73.87l45.655-253.234
		C364.838,241.092,353.772,234.435,337.203,234.435z"/>
</g>
<path style="fill:#FFA1D5;" d="M174.114,234.435c35.596,0,44.115,31.827,81.843,31.827c37.726,0,43.507-31.827,81.843-31.827h0.082
	c35.586,0,45.331,31.81,81.817,31.826c36.487-0.016,46.232-31.826,81.818-31.826c0-48.01-51.504-89.797-127.492-111.386
	l-230.847-1.437C64.346,142.748,10.48,185.338,10.48,234.435c35.587,0,45.331,31.81,81.817,31.826
	C128.784,266.245,138.528,234.435,174.114,234.435z"/>
<path style="fill:#FFFFFF;" d="M204.341,162.474c0,19.381-15.711,35.091-35.091,35.091s-35.091-15.711-35.091-35.091
	c0-42.118,61.02-143.839,243.299-152.027c-26.981,35.189,0,111.902,0,152.027c0,19.381-15.711,35.091-35.091,35.091
	s-35.091-15.711-35.091-35.091"/>
<path style="fill:#EFEEEE;" d="M307.275,162.474c0,28.424-23.043,51.467-51.467,51.467s-51.467-23.043-51.467-51.467
	c0-64.299,85.583-120.444,163.954-146.178C294.604,57.236,307.275,124.018,307.275,162.474z"/>
<path d="M473.058,160.896c-22.453-19.214-53.756-35.156-90.761-46.296c-5.594-34.578-12.324-77.22,3.452-97.794
	c2.472-3.224,2.852-7.588,0.973-11.19s-5.658-5.787-9.733-5.606c-102.583,4.608-163.33,38.273-196.227,65.703
	c-18.09,15.085-31.156,30.877-40.187,45.786c-0.034,0.009-0.07,0.014-0.104,0.022C54.001,134.703,0.231,181.672,0.036,234.15
	c-0.001,0.055,0.232,2.886,0.74,4.158l95.648,239.75c8.225,20.619,27.084,33.941,48.04,33.941H367.53
	c20.958,0,39.815-13.322,48.041-33.94c0,0,95.645-239.751,95.643-239.752c0.479-1.197,0.749-2.501,0.749-3.87
	C511.963,208.106,498.51,182.676,473.058,160.896z M356.396,36.512c-3.836,25.11,0.99,54.968,5.424,82.371
	c2.669,16.487,5.189,32.061,5.189,43.592c0,13.588-11.054,24.642-24.642,24.642c-13.588,0-24.643-11.055-24.643-24.642
	c0-4.802-0.186-9.924-0.382-15.346C316.059,111.801,314.501,68.759,356.396,36.512z M296.456,147.886
	c0.19,5.227,0.37,10.165,0.37,14.588c0,22.618-18.401,41.019-41.019,41.019s-41.017-18.401-41.017-41.019
	c0-33.005,26.493-61.414,48.719-79.434c14.848-12.038,32.837-23.493,52.485-33.588c-5.6,8.604-9.99,17.963-13.212,28.126
	C294.817,102.711,295.726,127.76,296.456,147.886z M309.309,29.339c-21.966,11.045-42.05,23.758-58.959,37.468
	c-36.934,29.947-56.456,63.027-56.456,95.668c0,13.588-11.055,24.642-24.643,24.642c-13.588,0-24.642-11.055-24.642-24.642
	C144.608,132.44,185.313,55.608,309.309,29.339z M396.162,470.314c-5.037,12.628-16.276,20.787-28.63,20.787h-24.43l26.377-151.436
	c0.991-5.685-2.815-11.097-8.501-12.086c-5.687-0.99-11.096,2.815-12.086,8.501l-27.002,155.021h-55.298V300.362
	c0-5.771-4.679-10.449-10.449-10.449s-10.449,4.678-10.449,10.449v190.739h-55.835l-27.001-155.022
	c-0.991-5.684-6.402-9.495-12.086-8.501c-5.685,0.991-9.492,6.401-8.501,12.086l26.376,151.437h-24.181
	c-12.354,0-23.593-8.16-28.63-20.787L27.235,248.234c6.184,2.584,11.69,6.405,17.644,10.543
	c12.087,8.401,25.788,17.923,47.422,17.933c21.626-0.009,35.328-9.532,47.415-17.933c10.726-7.454,19.989-13.892,34.399-13.892
	c14.227,0,23.209,6.33,33.61,13.659c12.084,8.516,25.782,18.168,48.231,18.168c22.182,0,35.209-9.464,46.703-17.813
	c10.35-7.518,19.288-14.012,35.227-14.013c14.407,0.001,23.668,6.439,34.393,13.893c12.087,8.401,25.788,17.923,47.423,17.933
	c21.626-0.009,35.328-9.532,47.414-17.933c5.954-4.139,11.46-7.959,17.644-10.543L396.162,470.314z M455.189,241.617
	c-10.954,7.613-20.414,14.189-35.488,14.195c-15.082-0.006-24.542-6.582-35.495-14.194c-11.891-8.264-25.367-17.631-46.327-17.631
	c-0.025,0-0.053,0-0.08,0c-22.639,0-35.806,9.565-47.423,18.004c-10.21,7.417-19.028,13.823-34.42,13.823
	c-15.826,0-25.266-6.651-36.194-14.353c-11.623-8.191-24.796-17.474-45.648-17.474c-20.96,0-34.436,9.366-46.326,17.631
	c-10.954,7.613-20.415,14.189-35.489,14.195c-15.081-0.006-24.54-6.581-35.494-14.194c-9.612-6.68-20.264-14.076-35.064-16.667
	c2.958-17.261,13.943-34.166,32.211-49.384c18.759-15.626,44.315-28.845,74.571-38.7c-3.335,9.727-4.816,18.473-4.816,25.608
	c0,25.111,20.429,45.54,45.54,45.54c13.039,0,24.808-5.517,33.118-14.33c10.757,18.349,30.677,30.705,53.44,30.705
	s42.684-12.357,53.441-30.705c8.31,8.813,20.078,14.33,33.118,14.33c25.11,0,45.54-20.429,45.54-45.54
	c0-7.41-0.834-15.817-2.062-24.83c30.02,10.04,55.276,23.428,73.626,39.129c17.402,14.892,27.896,31.379,30.779,48.177
	C475.453,227.542,464.8,234.937,455.189,241.617z"/>
<path d="M147.34,314.879c-5.019,0-9.447-3.626-10.296-8.738l-0.022-0.135c-0.945-5.694,2.904-11.075,8.597-12.019
	c5.691-0.947,11.075,2.904,12.019,8.596l0.022,0.135c0.945,5.693-2.904,11.075-8.597,12.019
	C148.485,314.832,147.908,314.879,147.34,314.879z"/>
<path d="M364.95,311.742c-0.544,0-1.095-0.043-1.649-0.131c-5.7-0.904-9.588-6.257-8.685-11.956l0.022-0.135
	c0.903-5.7,6.263-9.586,11.956-8.685c5.7,0.904,9.588,6.257,8.685,11.956l-0.022,0.135
	C374.442,308.073,369.999,311.742,364.95,311.742z"/>
</svg>