<svg width="24" height="24" viewBox="0 0 24 24" fill="none" xmlns="http://www.w3.org/2000/svg">
<path d="M13 12.175V9C13 8.71667 12.904 8.479 12.712 8.287C12.52 8.095 12.2827 7.99933 12 8C11.7167 8 11.479 8.096 11.287 8.288C11.095 8.48 10.9993 8.71733 11 9V12C11 12.3333 11.0583 12.6417 11.175 12.925C11.2917 13.2083 11.4667 13.4667 11.7 13.7L13.825 15.825C14.025 16.025 14.2627 16.125 14.538 16.125C14.8133 16.125 15.0507 16.025 15.25 15.825C15.4333 15.625 15.525 15.3873 15.525 15.112C15.525 14.8367 15.4333 14.6077 15.25 14.425L13 12.175ZM12 4C11.7167 4 11.479 4.096 11.287 4.288C11.095 4.48 10.9993 4.71733 11 5C11 5.28333 11.096 5.521 11.288 5.713C11.48 5.905 11.7173 6.00067 12 6C12.2833 6 12.521 5.904 12.713 5.712C12.905 5.52 13.0007 5.28267 13 5C13 4.71667 12.904 4.479 12.712 4.287C12.52 4.095 12.2827 3.99933 12 4ZM20 12C20 11.7167 19.904 11.479 19.712 11.287C19.52 11.095 19.2827 10.9993 19 11C18.7167 11 18.479 11.096 18.287 11.288C18.095 11.48 17.9993 11.7173 18 12C18 12.2833 18.096 12.521 18.288 12.713C18.48 12.905 18.7173 13.0007 19 13C19.2833 13 19.521 12.904 19.713 12.712C19.905 12.52 20.0007 12.2827 20 12ZM12 18C11.7167 18 11.479 18.096 11.287 18.288C11.095 18.48 10.9993 18.7173 11 19C11 19.2833 11.096 19.521 11.288 19.713C11.48 19.905 11.7173 20.0007 12 20C12.2833 20 12.521 19.904 12.713 19.712C12.905 19.52 13.0007 19.2827 13 19C13 18.7167 12.904 18.479 12.712 18.287C12.52 18.095 12.2827 17.9993 12 18ZM6 12C6 11.7167 5.904 11.479 5.712 11.287C5.52 11.095 5.28267 10.9993 5 11C4.71667 11 4.479 11.096 4.287 11.288C4.095 11.48 3.99933 11.7173 4 12C4 12.2833 4.096 12.521 4.288 12.713C4.48 12.905 4.71733 13.0007 5 13C5.28333 13 5.521 12.904 5.713 12.712C5.905 12.52 6.00067 12.2827 6 12ZM12 22C10.6167 22 9.31667 21.7373 8.1 21.212C6.88333 20.6867 5.825 19.9743 4.925 19.075C4.025 18.175 3.31267 17.1167 2.788 15.9C2.26333 14.6833 2.00067 13.3833 2 12C2 10.6167 2.26267 9.31667 2.788 8.1C3.31333 6.88333 4.02567 5.825 4.925 4.925C5.825 4.025 6.88333 3.31267 8.1 2.788C9.31667 2.26333 10.6167 2.00067 12 2C13.3833 2 14.6833 2.26267 15.9 2.788C17.1167 3.31333 18.175 4.02567 19.075 4.925C19.975 5.825 20.6877 6.88333 21.213 8.1C21.7383 9.31667 22.0007 10.6167 22 12C22 13.3833 21.7373 14.6833 21.212 15.9C20.6867 17.1167 19.9743 18.175 19.075 19.075C18.175 19.975 17.1167 20.6877 15.9 21.213C14.6833 21.7383 13.3833 22.0007 12 22Z" fill="#F3994B"/>
</svg>
